<svg width="40" height="40" viewBox="0 0 40 40" fill="none" xmlns="http://www.w3.org/2000/svg">
<path d="M21.0473 36.6758C19.9498 36.6776 18.8701 36.3986 17.9109 35.8651C16.9519 35.3315 16.1453 34.5613 15.5682 33.6278C14.9911 32.6943 14.6626 31.6285 14.614 30.5321C14.5654 29.4356 14.7983 28.345 15.2906 27.3641C15.3868 27.1631 15.4982 26.9698 15.6239 26.7858C15.7199 26.6526 15.8412 26.5396 15.9808 26.4533C16.1204 26.367 16.2757 26.309 16.4378 26.2828C16.5998 26.2565 16.7654 26.2623 16.9253 26.3C17.0849 26.3376 17.2358 26.4065 17.3689 26.5025C17.5021 26.5985 17.6151 26.7196 17.7014 26.8593C17.7878 26.999 17.8456 27.1543 17.8719 27.3163C17.8983 27.4783 17.8924 27.644 17.8548 27.8038C17.8171 27.9635 17.7483 28.1143 17.6523 28.2475C17.6064 28.318 17.5663 28.3921 17.5323 28.4691C17.1089 29.3058 16.9981 30.2661 17.2196 31.1773C17.4411 32.0883 17.9804 32.8906 18.7406 33.4396C19.5008 33.9886 20.4318 34.2485 21.3664 34.1723C22.3009 34.0961 23.1778 33.689 23.8389 33.0241C24.4329 32.4306 24.8213 31.6626 24.9473 30.8325C25.0733 30.0025 24.9301 29.1538 24.5389 28.4108C24.5389 28.4108 24.4756 28.2991 24.4189 28.1858C24.2734 27.8878 24.2524 27.5443 24.3603 27.2308C24.4681 26.9173 24.6959 26.6595 24.9939 26.5141C25.2919 26.3686 25.6353 26.3476 25.9488 26.4555C26.2623 26.5633 26.5201 26.7911 26.6656 27.0891L25.5423 27.6375L26.7089 27.1608C27.2453 28.1415 27.5166 29.2451 27.4963 30.3626C27.4759 31.4803 27.1646 32.5733 26.5931 33.5338C26.0216 34.4943 25.2094 35.2893 24.2369 35.8403C23.2644 36.3913 22.1649 36.6793 21.0473 36.6758Z" fill="#00462C"/>
<path d="M12.0243 31.633C11.5191 31.6314 11.0158 31.5715 10.5243 31.4547C8.99252 31.0934 7.64662 30.1824 6.74195 28.8944C5.8373 27.6065 5.43683 26.0315 5.61647 24.4679C5.79612 22.9044 6.54338 21.4612 7.71653 20.412C8.8897 19.3629 10.4071 18.7809 11.981 18.7764C12.3133 18.7764 12.6321 18.9077 12.8678 19.1419C13.1036 19.3762 13.2371 19.694 13.2393 20.0264C13.2404 20.1899 13.2092 20.3522 13.1474 20.5037C13.0855 20.6552 12.9944 20.793 12.8792 20.909C12.764 21.0252 12.6269 21.1175 12.4759 21.1805C12.3249 21.2435 12.163 21.276 11.9993 21.2764C11.3161 21.2787 10.6452 21.4594 10.0532 21.8004C9.4611 22.1414 8.96828 22.631 8.62337 23.2207C8.27845 23.8105 8.0934 24.4802 8.08652 25.1634C8.07963 25.8467 8.25115 26.5199 8.5841 27.1165C8.91707 27.713 9.39993 28.2125 9.98502 28.5654C10.5701 28.9184 11.2371 29.1124 11.9202 29.1285C12.6033 29.1447 13.2787 28.9824 13.8798 28.6575C14.4809 28.3327 14.9869 27.8565 15.3477 27.2764C15.4134 27.1797 15.4718 27.0782 15.5226 26.973L17.7509 28.1014C17.6589 28.292 17.5531 28.4759 17.4343 28.6514C16.8641 29.5707 16.067 30.3279 15.1195 30.85C14.172 31.3722 13.1061 31.6419 12.0243 31.633Z" fill="#00462C"/>
<path d="M30.097 31.6347C28.9827 31.6347 27.8873 31.3449 26.919 30.7934C25.9505 30.242 25.1423 29.448 24.5737 28.4897C24.5437 28.4447 24.4787 28.323 24.4187 28.2047C24.2732 27.9067 24.2522 27.5632 24.36 27.2497C24.4678 26.9362 24.6957 26.6784 24.9937 26.533C25.2917 26.3875 25.635 26.3664 25.9485 26.4742C26.262 26.582 26.5198 26.81 26.6653 27.108C27.087 27.8575 27.741 28.4497 28.5287 28.7952C29.3163 29.1407 30.1948 29.2205 31.032 29.023C31.9645 28.7977 32.7822 28.2389 33.331 27.4522C33.88 26.6654 34.1218 25.705 34.0113 24.752C33.9008 23.7992 33.4455 22.9197 32.7312 22.2794C32.0168 21.639 31.0928 21.2824 30.1337 21.2764C29.8013 21.2764 29.4825 21.1449 29.2468 20.9107C29.011 20.6765 28.8775 20.3585 28.8753 20.0264C28.8745 19.8627 28.9058 19.7004 28.9678 19.5489C29.0298 19.3974 29.1212 19.2595 29.2365 19.1434C29.3518 19.0274 29.489 18.935 29.6402 18.872C29.7913 18.809 29.9533 18.7765 30.117 18.7764H30.1337C31.7053 18.7825 33.2202 19.3642 34.3922 20.4114C35.564 21.4587 36.3115 22.899 36.4937 24.46C36.6757 26.0212 36.2795 27.5949 35.38 28.8837C34.4805 30.1724 33.14 31.087 31.612 31.4547C31.1157 31.5734 30.6073 31.6337 30.097 31.6347Z" fill="#00462C"/>
<path d="M30.1301 21.2421C29.7977 21.2421 29.4789 21.1106 29.2432 20.8765C29.0074 20.6423 28.8739 20.3245 28.8717 19.9921C28.8707 19.8285 28.9022 19.6661 28.9642 19.5146C29.0262 19.3631 29.1176 19.2253 29.2329 19.1091C29.3482 18.9931 29.4854 18.9008 29.6366 18.8378C29.7876 18.7748 29.9496 18.7423 30.1134 18.7421H30.1301C31.0892 18.7361 32.0132 18.3793 32.7276 17.7391C33.4419 17.0988 33.8972 16.2193 34.0077 15.2664C34.1182 14.3135 33.8762 13.3531 33.3274 12.5663C32.7786 11.7795 31.9607 11.2208 31.0284 10.9955C30.1936 10.8146 29.3229 10.9019 28.5407 11.2449C27.7584 11.5878 27.1042 12.169 26.6717 12.9055C26.6094 13.0141 26.5307 13.1125 26.4384 13.1971C26.2176 13.4055 25.9284 13.5265 25.6251 13.5373C25.3217 13.5482 25.0247 13.4483 24.7896 13.2562C24.5544 13.0641 24.3972 12.7931 24.3472 12.4936C24.2974 12.1941 24.3582 11.8867 24.5184 11.6288V11.6171C24.8951 10.8699 25.0311 10.0243 24.9076 9.19668C24.7839 8.36904 24.4069 7.60003 23.8284 6.99544C23.1712 6.34014 22.3039 5.93804 21.3791 5.86006C20.4544 5.78209 19.5319 6.03329 18.7744 6.56933C18.0169 7.10536 17.4731 7.89176 17.2391 8.78973C17.0049 9.68769 17.0956 10.6395 17.4949 11.4771C17.5912 11.6269 17.6776 11.7827 17.7534 11.9438C17.8959 12.2349 17.9197 12.5699 17.8199 12.8783C17.7202 13.1867 17.5046 13.4442 17.2186 13.5966C16.9326 13.749 16.5984 13.7844 16.2868 13.6953C15.9752 13.6061 15.7104 13.3994 15.5483 13.1188L15.32 12.7171C14.8224 11.9323 14.0627 11.3493 13.1759 11.0717C12.2891 10.7941 11.3326 10.8398 10.4763 11.2008C9.62003 11.5618 8.91943 12.2146 8.49902 13.0433C8.0786 13.8721 7.96557 14.8229 8.18 15.7271C8.37597 16.5869 8.85858 17.3545 9.54857 17.9036C10.2385 18.4526 11.0949 18.7508 11.9767 18.7488C12.309 18.7488 12.6278 18.8801 12.8635 19.1143C13.0993 19.3486 13.2328 19.6665 13.235 19.9988C13.2359 20.1625 13.2044 20.3248 13.1425 20.4763C13.0805 20.6278 12.9892 20.7655 12.8738 20.8816C12.7584 20.9978 12.6212 21.09 12.4702 21.153C12.3191 21.216 12.157 21.2486 11.9933 21.2488C11.0347 21.2455 10.089 21.0276 9.22538 20.6115C8.36178 20.1953 7.60218 19.5913 7.00223 18.8436C6.40227 18.096 5.97712 17.2235 5.75793 16.2903C5.53873 15.3571 5.53107 14.3866 5.73545 13.45C5.93982 12.5134 6.35107 11.6344 6.93912 10.8773C7.52715 10.1202 8.27708 9.50419 9.13398 9.07441C9.99088 8.64463 10.933 8.41194 11.8915 8.39338C12.85 8.37483 13.8004 8.57083 14.6733 8.96711C14.8615 7.40588 15.617 5.96828 16.7962 4.92783C17.9752 3.88738 19.4957 3.31668 21.0684 3.32429C22.6409 3.33189 24.1557 3.91731 25.3247 4.96913C26.4937 6.02096 27.2352 7.46579 27.4084 9.02878C28.2774 8.62376 29.2262 8.41888 30.1851 8.42919C31.1437 8.43951 32.0881 8.66479 32.9482 9.08843C33.8082 9.51206 34.5624 10.1233 35.1551 10.877C35.7477 11.6308 36.1637 12.5079 36.3724 13.4437C36.5811 14.3795 36.5772 15.3502 36.3609 16.2844C36.1447 17.2185 35.7217 18.0921 35.1231 18.8411C34.5244 19.5901 33.7652 20.1951 32.9017 20.6118C32.0382 21.0286 31.0921 21.2461 30.1334 21.2488L30.1301 21.2421Z" fill="#00462C"/>
<path d="M21.0554 24.1417C20.2379 24.1417 19.4387 23.8993 18.7591 23.4452C18.0794 22.9908 17.5496 22.3453 17.2367 21.5902C16.9239 20.8348 16.8421 20.0038 17.0016 19.202C17.1611 18.4002 17.5547 17.6637 18.1327 17.0857C18.7107 16.5076 19.4472 16.1139 20.2491 15.9544C21.0509 15.7949 21.8819 15.8768 22.6372 16.1896C23.3924 16.5025 24.0381 17.0323 24.4922 17.712C24.9464 18.3917 25.1887 19.1908 25.1887 20.0083C25.1874 21.1042 24.7516 22.1547 23.9767 22.9297C23.2017 23.7045 22.1512 24.1403 21.0554 24.1417ZM21.0554 18.375C20.7324 18.375 20.4166 18.4708 20.1481 18.6503C19.8794 18.8297 19.6701 19.0848 19.5464 19.3833C19.4229 19.6818 19.3906 20.0102 19.4536 20.327C19.5166 20.6438 19.6721 20.9348 19.9006 21.1633C20.1289 21.3917 20.4199 21.5473 20.7367 21.6103C21.0536 21.6733 21.3821 21.641 21.6806 21.5173C21.9789 21.3937 22.2341 21.1843 22.4136 20.9158C22.5931 20.6472 22.6887 20.3313 22.6887 20.0083C22.6884 19.5753 22.5161 19.1602 22.2099 18.8538C21.9037 18.5477 21.4886 18.3755 21.0554 18.375Z" fill="#00462C"/>
</svg>
